Good Movies are Good Movies presents:

Darbareye ELLY [A propos d'ELLY] (2009)

Drama) درباره الی Darbareye ELLY [A propos d'ELLY] 2009 (DVDrip)
MKV | XviD-1328 | mp3@192 | 688x368 | 2 Audio Tracks Persian_1 French_2 (French idx+sub in file and more) + English srt subtitles | DVD Cover | 1h54 | 1.4 Gb

Iran 2009
Director Asghar FARHADI

Cast Saber ABBAR, Taraneh ALIDOOSTI, Ra'na AZADIVAR, Golshifteh FARAHANI, Mani HAGHIGHI, Shahab HOSSEINI, Ahmad MEHRANFAR, Peyman MOAADI, Merila ZARE'I

After living in Germany for many years, Ahmad returns to Iran. His friend Sepideh organizes a trip with him and all his friends to spend three days by the shores of the Caspian Sea. Without warning the group, she invites a stranger, Elly, her daughter’s teacher from the care center. Ahmad, having had an unhappy marriage with a German woman, wants to be with an Iranian woman. On the second day, when everything seems to be going well, something strange happens and Elly disappears. The joyful and pleasant atmosphere fades away as they try to discover the reason for the bizarre disappearance. Elly’s family is contacted but none of them know of her whereabouts. The friends start panicking and begin to blame each other for Elly’s disappearance.

Amazing Movie - It was Iran's official submission to 82nd Academy Award's Foreign Language in 2010.

Original Credits galmuchet @ http://www.foriegnmoviesddl.com/2010/03/darbareye-elly-propos-delly-2009-asghar.html

I am only seeding till 1:1 ratio is reached!

Format                           : Matroska
File size                        : 1.37 GiB
Duration                         : 1h 53mn
Overall bit rate                 : 1 719 Kbps
Encoded date                     : UTC 2010-04-07 06:31:56
Writing application              : mkvmerge v2.9.8 ('C'est le bon') built on Aug 13 2009 12:49:06
Writing library                  : libebml v0.7.7 + libmatroska v0.8.1
Cover                            : Yes / Yes / Yes / Yes / Yes

Video
ID                               : 1
Format                           : MPEG-4 Visual
Format profile                   : Advanced Simple@L5
Format settings, BVOP            : Yes
Format settings, QPel            : No
Format settings, GMC             : No warppoints
Format settings, Matrix          : Default (MPEG)
Codec ID                         : XVID
Codec ID/Hint                    : XviD
Duration                         : 1h 53mn
Bit rate                         : 1 301 Kbps
Width                            : 688 pixels
Height                           : 368 pixels
Display aspect ratio             : 1.870
Frame rate                       : 25.000 fps
Resolution                       : 8 bits
Colorimetry                      : 4:2:0
Scan type                        : Progressive
Bits/(Pixel*Frame)               : 0.205
Stream size                      : 1.03 GiB (76%)
Writing library                  : XviD 1.2.0.dev47 (UTC 2006-11-01)

Audio #1
ID                               : 2
Format                           : MPEG Audio
Format version                   : Version 1
Format profile                   : Layer 3
Mode                             : Joint stereo
Format_Settings_ModeExtension    : MS Stereo
Codec ID                         : A_MPEG/L3
Codec ID/Hint                    : MP3
Duration                         : 1h 53mn
Bit rate mode                    : Constant
Bit rate                         : 192 Kbps
Channel(s)                       : 2 channels
Sampling rate                    : 48.0 KHz
Stream size                      : 156 MiB (11%)
Writing library                  : LAME3.97 
Encoding settings                : -m j -V 4 -q 2 -lowpass 18.6 -b 192
Language                         : Persian

Audio #2
ID                               : 3
Format                           : MPEG Audio
Format version                   : Version 1
Format profile                   : Layer 3
Mode                             : Joint stereo
Format_Settings_ModeExtension    : MS Stereo
Codec ID                         : A_MPEG/L3
Codec ID/Hint                    : MP3
Duration                         : 1h 53mn
Bit rate mode                    : Constant
Bit rate                         : 192 Kbps
Channel(s)                       : 2 channels
Sampling rate                    : 48.0 KHz
Stream size                      : 156 MiB (11%)
Writing library                  : LAME3.97 
Encoding settings                : -m j -V 4 -q 2 -lowpass 18.6 -b 192
Language                         : French

Text #1
ID                               : 4
Format                           : UTF-8
Codec ID                         : S_TEXT/UTF8
Codec ID/Info                    : UTF-8 Plain Text
Language                         : English

Text #2
ID                               : 5
Format                           : UTF-8
Codec ID                         : S_TEXT/UTF8
Codec ID/Info                    : UTF-8 Plain Text
Language                         : French

Text #3
ID                               : 6
Format                           : VobSub
Codec ID                         : S_VOBSUB
Codec ID/Info                    : The same subtitle format used on DVDs
Title                            : Vobsub
Language                         : French

Text #4
ID                               : 7
Format                           : VobSub
Codec ID                         : S_VOBSUB
Codec ID/Info                    : The same subtitle format used on DVDs
Title                            : Vobsub
Language                         : French